// Spherical cap
Point(1) = {0.000000, 0.000000, 0.015166852264521177, 1.0};
Point(2) = {0.05, 0.000000, 0.015166852264521177, 1.0};
Point(3) = {0.03535533905932738, 0.035355339059327376, 0.015166852264521177, 1.0};
Point(4) = {0.000000, 0.05, 0.015166852264521177, 1.0};
Point(5) = {-0.035355339059327376, 0.03535533905932738, 0.015166852264521177, 1.0};
Point(6) = {-0.05, 0.000000, 0.015166852264521177, 1.0};
Point(7) = {-0.03535533905932738, -0.035355339059327376, 0.015166852264521177, 1.0};
Point(8) = {0.000000, -0.05, 0.015166852264521177, 1.0};
Point(9) = {0.03535533905932737, -0.03535533905932738, 0.015166852264521177, 1.0};
Point(10) = {0.025, 0.000000, 0.015166852264521177, 1.0};
Point(11) = {0.01767766952966369, 0.017677669529663688, 0.015166852264521177, 1.0};
Point(12) = {0, 0.025, 0.015166852264521177, 1.0};
Point(13) = {-0.017677669529663688, 0.01767766952966369, 0.015166852264521177, 1.0};
Point(14) = {-0.025, 0, 0.015166852264521177, 1.0};
Point(15) = {-0.01767766952966369, -0.017677669529663688, 0.015166852264521177, 1.0};
Point(16) = {0, -0.025, 0.015166852264521177, 1.0};
Point(17) = {0.017677669529663684, -0.01767766952966369, 0.015166852264521177, 1.0};
Point(18) = {0, 0, 0.008538728842576494, 1.0};
Point(19) = {0.022222222222222223, 0, 0.010018775175289754, 1.0};
Point(20) = {0.015713484026367724, 0.01571348402636772, 0.010018775175289754, 1.0};
Point(21) = {0, 0.022222222222222223, 0.010018775175289754, 1.0};
Point(22) = {-0.01571348402636772, 0.015713484026367724, 0.010018775175289754, 1.0};
Point(23) = {-0.022222222222222223, 0, 0.010018775175289754, 1.0};
Point(24) = {-0.015713484026367727, -0.01571348402636772, 0.010018775175289754, 1.0};
Point(25) = {0, -0.022222222222222223, 0.010018775175289754, 1.0};
Point(26) = {0.01571348402636772, -0.015713484026367727, 0.010018775175289754, 1.0};
Point(27) = {-0.026088039508011057, 0, 0.00386397853030096, 1.0};
Point(28) = {-0.020464398386994237, -0.020464398386994237, 0.004780185418432321, 1.0};
Point(29) = {0, -0.026088039508011057, 0.00386397853030096, 1.0};
Point(30) = {0.020464398386994237, -0.020464398386994237, 0.004780185418432321, 1.0};
Point(31) = {0.026088039508011057, 0, 0.00386397853030096, 1.0};
Point(32) = {0.020464398386994237, 0.020464398386994237, 0.004780185418432321, 1.0};
Point(33) = {0, 0.026088039508011057, 0.00386397853030096, 1.0};
Point(34) = {-0.020464398386994237, 0.020464398386994237, 0.004780185418432321, 1.0};
Point(35) = {0.000000, 0.000000, 0.000000, 1.0};
Point(36) = {0.000000, 0.000000, 0.09, 1.0};

Line(1) = {14, 13};
Line(2) = {14, 15};
Line(3) = {14, 6};
Line(4) = {7, 15};
Line(5) = {5, 13};
Line(6) = {13, 12};
Line(7) = {15, 16};
Line(8) = {16, 8};
Line(9) = {16, 1};
Line(10) = {1, 14};
Line(11) = {1, 12};
Line(12) = {16, 17};
Line(13) = {17, 10};
Line(14) = {10, 1};
Line(15) = {17, 9};
Line(16) = {10, 2};
Line(17) = {10, 11};
Line(18) = {11, 12};
Line(19) = {12, 4};
Line(20) = {11, 3};
Circle(21) = {6, 1, 5};
Circle(22) = {5, 1, 4};
Circle(23) = {4, 1, 3};
Circle(24) = {3, 1, 2};
Circle(25) = {2, 1, 9};
Circle(26) = {9, 1, 8};
Circle(27) = {8, 1, 7};
Circle(28) = {7, 1, 6};
Line(29) = {18, 23};
Line(30) = {18, 21};
Line(31) = {18, 25};
Line(32) = {18, 19};
Line(33) = {19, 20};
Line(34) = {20, 21};
Line(35) = {21, 22};
Line(36) = {22, 23};
Line(37) = {23, 24};
Line(38) = {24, 25};
Line(39) = {25, 26};
Line(40) = {26, 19};
Line(41) = {26, 17};
Line(42) = {25, 16};
Line(43) = {24, 15};
Line(44) = {23, 14};
Line(45) = {22, 13};
Line(46) = {21, 12};
Line(47) = {20, 11};
Line(48) = {19, 10};
Line(49) = {35, 18};
Line(50) = {25, 29};
Line(51) = {24, 28};
Line(52) = {23, 27};
Line(53) = {22, 34};
Line(54) = {21, 33};
Line(55) = {20, 32};
Line(56) = {19, 31};
Line(57) = {26, 30};
Circle(58) = {4, 36, 33};
Circle(59) = {5, 36, 34};
Circle(60) = {27, 36, 6};
Circle(61) = {28, 36, 7};
Circle(62) = {29, 36, 8};
Circle(63) = {30, 36, 9};
Circle(64) = {31, 36, 2};
Circle(65) = {32, 36, 3};
Circle(66) = {31, 36, 32};
Circle(67) = {32, 36, 33};
Circle(68) = {33, 36, 34};
Circle(69) = {34, 36, 27};
Circle(70) = {27, 36, 28};
Circle(71) = {28, 36, 29};
Circle(72) = {29, 36, 30};
Circle(73) = {30, 36, 31};
Circle(74) = {35, 36, 31};
Circle(75) = {35, 36, 33};
Circle(76) = {35, 36, 27};
Circle(77) = {35, 36, 29};
Line Loop(78) = {18, -11, -14, 17};
Surface(79) = {78};
Line Loop(80) = {6, -11, 10, 1};
Surface(81) = {80};
Line Loop(82) = {10, 2, 7, 9};
Surface(83) = {82};
Line Loop(84) = {14, -9, 12, 13};
Surface(85) = {84};
Line Loop(86) = {20, 24, -16, 17};
Surface(87) = {86};
Line Loop(88) = {16, 25, -15, 13};
Surface(89) = {88};
Line Loop(90) = {15, 26, -8, 12};
Surface(91) = {90};
Line Loop(92) = {7, 8, 27, 4};
Surface(93) = {92};
Line Loop(94) = {2, -4, 28, -3};
Surface(95) = {94};
Line Loop(96) = {3, 21, 5, -1};
Surface(97) = {96};
Line Loop(98) = {6, 19, -22, 5};
Surface(99) = {98};
Line Loop(100) = {20, -23, -19, -18};
Surface(101) = {100};
Line Loop(102) = {40, 48, -13, -41};
Surface(103) = {102};
Line Loop(104) = {41, -12, -42, 39};
Surface(105) = {104};
Line Loop(106) = {42, -7, -43, 38};
Surface(107) = {106};
Line Loop(108) = {43, -2, -44, 37};
Surface(109) = {108};
Line Loop(110) = {44, 1, -45, 36};
Surface(111) = {110};
Line Loop(112) = {6, -46, 35, 45};
Surface(113) = {112};
Line Loop(114) = {18, -46, -34, 47};
Surface(115) = {114};
Line Loop(116) = {17, -47, -33, 48};
Surface(117) = {116};
Line Loop(118) = {35, 36, -29, 30};
Surface(119) = {118};
Line Loop(120) = {29, 37, 38, -31};
Surface(121) = {120};
Line(150) = {18, 1};
Line Loop(123) = {31, 39, 40, -32};
Surface(124) = {123};
Line Loop(125) = {30, -34, -33, -32};
Surface(126) = {125};
Line Loop(127) = {30, 46, -11, -150};
Surface(128) = {127};
Line Loop(129) = {150, -9, -42, -31};
Surface(130) = {129};
Line Loop(131) = {44, -10, -150, 29};
Surface(132) = {131};
Line Loop(133) = {150, -14, -48, -32};
Surface(134) = {133};
Line Loop(135) = {52, 60, -3, -44};
Surface(136) = {135};
Line Loop(137) = {59, -53, 45, -5};
Surface(138) = {137};
Line Loop(139) = {54, -58, -19, -46};
Surface(140) = {139};
Line Loop(141) = {65, -20, -47, 55};
Surface(142) = {141};
Line Loop(143) = {64, -16, -48, 56};
Surface(144) = {143};
Line Loop(145) = {63, -15, -41, 57};
Surface(146) = {145};
Line Loop(147) = {62, -8, -42, 50};
Surface(148) = {147};
Line Loop(149) = {51, 61, 4, -43};
Surface(150) = {149};
Line Loop(151) = {50, 72, -57, -39};
Surface(152) = {151};
Line Loop(153) = {57, 73, -56, -40};
Surface(154) = {153};
Line Loop(155) = {55, -66, -56, 33};
Surface(156) = {155};
Line Loop(157) = {55, 67, -54, -34};
Surface(158) = {157};
Line Loop(159) = {68, -53, -35, 54};
Surface(160) = {159};
Line Loop(161) = {69, -52, -36, 53};
Surface(162) = {161};
Line Loop(163) = {52, 70, -51, -37};
Surface(164) = {163};
Line Loop(165) = {71, -50, -38, 51};
Surface(166) = {165};
Line Loop(167) = {70, 61, 28, -60};
Surface(168) = {167};
Line Loop(169) = {61, -27, -62, -71};
Surface(170) = {169};
Line Loop(171) = {72, 63, 26, -62};
Surface(172) = {171};
Line Loop(173) = {63, -25, -64, -73};
Surface(174) = {173};
Line Loop(175) = {64, -24, -65, -66};
Surface(176) = {175};
Line Loop(177) = {65, -23, 58, -67};
Surface(178) = {177};
Line Loop(179) = {68, -59, 22, 58};
Surface(180) = {179};
Line Loop(181) = {69, 60, 21, 59};
Surface(182) = {181};
Line Loop(183) = {49, 30, 54, -75};
Surface(184) = {183};
Line Loop(185) = {49, 29, 52, -76};
Surface(186) = {185};
Line Loop(187) = {49, 31, 50, -77};
Surface(188) = {187};
Line Loop(189) = {49, 32, 56, -74};
Surface(190) = {189};
Line Loop(191) = {77, 72, 73, -74};
Surface(192) = {191};
Line Loop(193) = {74, 66, 67, -75};
Surface(194) = {193};
Line Loop(195) = {75, 68, 69, -76};
Surface(196) = {195};
Line Loop(197) = {77, -71, -70, -76};
Surface(198) = {197};
Surface Loop(199) = {134, 103, 105, 130, 124, 85};
Volume(200) = {199};
Surface Loop(201) = {107, 130, 121, 83, 132, 109};
Volume(202) = {201};
Surface Loop(203) = {128, 132, 111, 113, 119, 81};
Volume(204) = {203};
Surface Loop(205) = {117, 134, 128, 115, 126, 79};
Volume(206) = {205};
Surface Loop(207) = {142, 115, 140, 101, 178, 158};
Volume(208) = {207};
Surface Loop(209) = {140, 113, 138, 160, 99, 180};
Volume(210) = {209};
Surface Loop(211) = {138, 111, 136, 97, 182, 162};
Volume(212) = {211};
Surface Loop(213) = {136, 109, 150, 95, 168, 164};
Volume(214) = {213};
Surface Loop(215) = {150, 107, 148, 93, 170, 166};
Volume(216) = {215};
Surface Loop(217) = {148, 91, 172, 105, 152, 146};
Volume(218) = {217};
Surface Loop(219) = {103, 146, 89, 174, 144, 154};
Volume(220) = {219};
Surface Loop(221) = {144, 117, 142, 87, 176, 156};
Volume(222) = {221};
Surface Loop(223) = {190, 156, 158, 184, 126, 194};
Volume(224) = {223};
Surface Loop(225) = {184, 186, 119, 160, 162, 196};
Volume(226) = {225};
Surface Loop(227) = {186, 188, 121, 164, 166, 198};
Volume(228) = {227};
Surface Loop(229) = {188, 190, 152, 124, 154, 192};
Volume(230) = {229};

density1 = 20;
density2 = 30;
density3 = 30;
density4 = 20;

// Cylinder
Point(37) = {0, 0, 0.12, 1.0};
Point(38) = {0.05, 0, 0.12, 1.0};
Point(39) = {0.03535533905932738, 0.035355339059327376, 0.12, 1.0};
Point(40) = {0, 0.05, 0.12, 1.0};
Point(41) = {-0.035355339059327376, 0.03535533905932738, 0.12, 1.0};
Point(42) = {-0.05, 0, 0.12, 1.0};
Point(43) = {-0.03535533905932738, -0.035355339059327376, 0.12, 1.0};
Point(44) = {0, -0.05, 0.12, 1.0};
Point(45) = {0.03535533905932737, -0.03535533905932738, 0.12, 1.0};
Point(46) = {0.025, 0, 0.12, 1.0};
Point(47) = {0.01767766952966369, 0.017677669529663688, 0.12, 1.0};
Point(48) = {0, 0.025, 0.12, 1.0};
Point(49) = {-0.017677669529663688, 0.01767766952966369, 0.12, 1.0};
Point(50) = {-0.025, 0, 0.12, 1.0};
Point(51) = {-0.01767766952966369, -0.017677669529663688, 0.12, 1.0};
Point(52) = {0, -0.025, 0.12, 1.0};
Point(53) = {0.017677669529663684, -0.01767766952966369, 0.12, 1.0};

Line(78) = {50, 49};
Line(79) = {50, 51};
Line(80) = {50, 42};
Line(81) = {43, 51};
Line(82) = {41, 49};
Line(83) = {49, 48};
Line(84) = {51, 52};
Line(85) = {52, 44};
Line(86) = {52, 37};
Line(87) = {37, 50};
Line(88) = {37, 48};
Line(89) = {52, 53};
Line(90) = {53, 46};
Line(91) = {46, 37};
Line(92) = {53, 45};
Line(93) = {46, 38};
Line(94) = {46, 47};
Line(95) = {47, 48};
Line(96) = {48, 40};
Line(97) = {47, 39};
Circle(98) = {42, 37, 41};
Circle(99) = {41, 37, 40};
Circle(100) = {40, 37, 39};
Circle(101) = {39, 37, 38}; 
Circle(102) = {38, 37, 45}; 
Circle(103) = {45, 37, 44}; 
Circle(104) = {44, 37, 43}; 
Circle(105) = {43, 37, 42}; 
Line(106) = {1, 37};  
Line(107) = {14, 50}; 
Line(108) = {13, 49}; 
Line(109) = {12, 48}; 
Line(110) = {11, 47}; 
Line(111) = {10, 46}; 
Line(112) = {17, 53}; 
Line(113) = {16, 52}; 
Line(114) = {15, 51}; 
Line(115) = {6, 42}; 
Line(116) = {5, 41}; 
Line(117) = {4, 40}; 
Line(118) = {3, 39}; 
Line(119) = {2, 38}; 
Line(120) = {9, 45}; 
Line(121) = {8, 44}; 
Line(122) = {7, 43};

Line Loop(199) = {91, 88, -95, -94};
Surface(200) = {199};
Line Loop(201) = {87, 78, 83, -88};
Surface(202) = {201};
Line Loop(203) = {87, 79, 84, 86};
Surface(204) = {203};
Line Loop(205) = {86, -91, -90, -89};
Surface(206) = {205}; 
Line Loop(207) = {93, -101, -97, -94};
Surface(208) = {207}; 
Line Loop(209) = {90, 93, 102, -92};
Surface(210) = {209}; 
Line Loop(211) = {89, 92, 103, -85}; 
Surface(212) = {211};
Line Loop(213) = {84, 85, 104, 81};
Surface(214) = {213};
Line Loop(215) = {81, -79, 80, -105};
Surface(216) = {215};
Line Loop(217) = {98, 82, -78, 80};
Surface(218) = {217};
Line Loop(219) = {99, -96, -83, -82};
Surface(220) = {219};
Line Loop(221) = {100, -97, 95, 96};
Surface(222) = {221};
Line Loop(223) = {111, 91, -106, -14};
Surface(224) = {223};
Line Loop(225) = {106, 88, -109, -11};
Surface(226) = {225};
Line Loop(227) = {106, 87, -107, -10};
Surface(228) = {227};
Line Loop(229) = {86, -106, -9, 113};
Surface(230) = {229};
Line Loop(231) = {94, -110, -17, 111};
Surface(232) = {231};
Line Loop(233) = {95, -109, -18, 110};
Surface(234) = {233};
Line Loop(235) = {83, -109, -6, 108};
Surface(236) = {235};
Line Loop(237) = {78, -108, -1, 107};
Surface(238) = {237};
Line Loop(239) = {79, -114, -2, 107};
Surface(240) = {239};
Line Loop(241) = {84, -113, -7, 114};
Surface(242) = {241};
Line Loop(243) = {89, -112, -12, 113};
Surface(244) = {243};
Line Loop(245) = {112, 90, -111, -13};
Surface(246) = {245};
Line Loop(247) = {93, -119, -16, 111};
Surface(248) = {247};
Line Loop(249) = {97, -118, -20, 110};
Surface(250) = {249};
Line Loop(251) = {96, -117, -19, 109};
Surface(252) = {251};
Line Loop(253) = {82, -108, -5, 116};
Surface(254) = {253};
Line Loop(255) = {80, -115, -3, 107};
Surface(256) = {255};
Line Loop(257) = {81, -114, -4, 122};
Surface(258) = {257};
Line Loop(259) = {85, -121, -8, 113};
Surface(260) = {259};
Line Loop(261) = {92, -120, -15, 112};
Surface(262) = {261};
Line Loop(263) = {101, -119, -24, 118};
Surface(264) = {263};
Line Loop(265) = {100, -118, -23, 117};
Surface(266) = {265};
Line Loop(267) = {99, -117, -22, 116};
Surface(268) = {267};
Line Loop(269) = {98, -116, -21, 115};
Surface(270) = {269};
Line Loop(271) = {102, -120, -25, 119};
Surface(272) = {271};
Line Loop(273) = {103, -121, -26, 120};
Surface(274) = {273};
Line Loop(275) = {104, -122, -27, 121};
Surface(276) = {275};
Line Loop(277) = {105, -115, -28, 122};
Surface(278) = {277};

Surface Loop(279) = {200, 79, 232, 226, 234, 224};
Volume(280) = {279}; 
Surface Loop(281) = {202, 81, 226, 236, 238, 228};
Volume(282) = {281}; 
Surface Loop(283) = {204, 83, 228, 242, 240, 230};
Volume(284) = {283}; 
Surface Loop(285) = {206, 85, 224, 244, 246, 230};
Volume(286) = {285}; 
Surface Loop(287) = {208, 87, 232, 264, 248, 250};
Volume(288) = {287}; 
Surface Loop(289) = {222, 101, 250, 252, 234, 266};
Volume(290) = {289}; 
Surface Loop(291) = {220, 99, 236, 268, 252, 254};
Volume(292) = {291}; 
Surface Loop(293) = {218, 97, 254, 256, 270, 238};
Volume(294) = {293}; 
Surface Loop(295) = {216, 95, 256, 258, 240, 278};
Volume(296) = {295}; 
Surface Loop(297) = {214, 93, 258, 260, 242, 276};
Volume(298) = {297}; 
Surface Loop(299) = {212, 91, 260, 262, 244, 274};
Volume(300) = {299}; 
Surface Loop(301) = {210, 89, 262, 248, 246, 272};
Volume(302) = {301}; 

// Vertical lines and arcs
Transfinite Line {150, 41, 42, 43, 44, 45, 46, 47, 48} = density1;
Transfinite Line {58, 59, 60, 61, 62, 63, 64, 65} = density1;
Transfinite Line {9, 10, 11, 14, 39, 30, 31, 32} = density2;
Transfinite Line {1, 2, 7, 12, 13, 17, 18, 6} = density2;
Transfinite Line {33, 34, 35, 36, 37, 38, 39, 40} = density2;
Transfinite Line {21, 22, 23, 24, 25, 26, 27, 28, 29} = density2;
Transfinite Line {66, 67, 68, 69, 70, 71, 72, 73} = density2;
Transfinite Line {74, 75, 76, 77} = density2;
Transfinite Line {49, 56, 16, 57, 15, 50, 8, 51} = density3;
Transfinite Line {4, 52, 3, 53, 5, 54, 19, 55, 20} = density3;
Transfinite Line {78, 79, 80, 81, 82, 83, 84, 85, 86, 87} = density2;
Transfinite Line {88, 89, 90, 91, 92, 93, 94, 95, 96, 97} = density2;
Transfinite Line {98, 99, 100, 101, 102, 103, 104, 105} = density2;
Transfinite Line {106, 107, 108, 109, 110, 111, 112, 113} = density4;
Transfinite Line {114, 115, 116, 117, 118, 119, 120, 121, 122} = density4;

Physical Surface(1) = {176, 174, 172, 170, 168, 182, 180, 178, 194, 192, 198, 196};
Physical Surface(2) = {278, 276, 274, 272, 270, 268, 266, 264, 222, 220, 218, 216, 214, 212, 210, 208, 206, 204, 202, 200};
Physical Volume(1) = {200, 202, 204, 206, 208, 210, 212, 214, 216, 218, 220, 222, 224, 226, 228, 230, 280, 282, 284, 286, 288, 290, 292, 294, 296, 298, 300, 302};

Transfinite Surface "*";
Recombine Surface "*";

Transfinite Volume "*";
